<svg width="20" height="21" viewBox="0 0 20 21" fill="none" xmlns="http://www.w3.org/2000/svg">
<g clip-path="url(#clip0_7_409)">
<path d="M20 10.5C20 4.9772 15.5228 0.5 10 0.5C4.4772 0.5 0 4.9772 0 10.5C0 15.1896 3.2288 19.1248 7.5844 20.2056V13.556H5.5224V10.5H7.5844V9.1832C7.5844 5.7796 9.1248 4.202 12.4664 4.202C13.1 4.202 14.1932 4.3264 14.6404 4.4504V7.2204C14.4044 7.1956 13.9944 7.1832 13.4852 7.1832C11.8456 7.1832 11.212 7.8044 11.212 9.4192V10.5H14.4784L13.9172 13.556H11.212V20.4268C16.1636 19.8288 20.0004 15.6128 20.0004 10.5H20Z" fill="#1A1B1B"/>
<path d="M13.9168 13.556L14.478 10.5H11.2116V9.41923C11.2116 7.80443 11.8452 7.18323 13.4848 7.18323C13.994 7.18323 14.404 7.19563 14.64 7.22043V4.45043C14.1928 4.32603 13.0996 4.20203 12.466 4.20203C9.1244 4.20203 7.584 5.77963 7.584 9.18323V10.5H5.522V13.556H7.584V20.2056C8.3576 20.3976 9.1668 20.5 9.9996 20.5C10.4096 20.5 10.814 20.4748 11.2112 20.4268V13.556H13.9164H13.9168Z" fill="#E9E7E1"/>
</g>
<defs>
<clipPath id="clip0_7_409">
<rect width="20" height="20" fill="white" transform="translate(0 0.5)"/>
</clipPath>
</defs>
</svg>
