<svg width="20" height="21" viewBox="0 0 20 21" fill="none" xmlns="http://www.w3.org/2000/svg">
<g clip-path="url(#clip0_7_418)">
<path d="M18.5236 0.5H1.47639C1.08483 0.5 0.709301 0.655548 0.432425 0.932425C0.155548 1.2093 0 1.58483 0 1.97639V19.0236C0 19.4152 0.155548 19.7907 0.432425 20.0676C0.709301 20.3445 1.08483 20.5 1.47639 20.5H18.5236C18.9152 20.5 19.2907 20.3445 19.5676 20.0676C19.8445 19.7907 20 19.4152 20 19.0236V1.97639C20 1.58483 19.8445 1.2093 19.5676 0.932425C19.2907 0.655548 18.9152 0.5 18.5236 0.5ZM5.96111 17.5375H2.95417V7.98611H5.96111V17.5375ZM4.45556 6.6625C4.11447 6.66058 3.7816 6.55766 3.49895 6.36674C3.21629 6.17582 2.99653 5.90544 2.8674 5.58974C2.73826 5.27404 2.70554 4.92716 2.77336 4.59288C2.84118 4.2586 3.0065 3.9519 3.24846 3.71148C3.49042 3.47107 3.79818 3.30772 4.13289 3.24205C4.4676 3.17638 4.81426 3.21133 5.12913 3.34249C5.44399 3.47365 5.71295 3.69514 5.90205 3.97901C6.09116 4.26288 6.19194 4.59641 6.19167 4.9375C6.19488 5.16586 6.15209 5.39253 6.06584 5.604C5.97959 5.81547 5.85165 6.00742 5.68964 6.16839C5.52763 6.32936 5.33487 6.45607 5.12285 6.54096C4.91083 6.62585 4.68389 6.66718 4.45556 6.6625ZM17.0444 17.5458H14.0389V12.3278C14.0389 10.7889 13.3847 10.3139 12.5403 10.3139C11.6486 10.3139 10.7736 10.9861 10.7736 12.3667V17.5458H7.76667V7.99306H10.6583V9.31667H10.6972C10.9875 8.72917 12.0042 7.725 13.5556 7.725C15.2333 7.725 17.0458 8.72083 17.0458 11.6375L17.0444 17.5458Z" fill="#1A1B1B"/>
</g>
<defs>
<clipPath id="clip0_7_418">
<rect width="20" height="20" fill="white" transform="translate(0 0.5)"/>
</clipPath>
</defs>
</svg>
