<svg width="23" height="23" viewBox="0 0 23 23" fill="none" xmlns="http://www.w3.org/2000/svg">
<g clip-path="url(#clip0_7_420)">
<path d="M22.5419 5.92771C22.4119 5.43839 22.1556 4.99182 21.7987 4.63267C21.4419 4.27352 20.997 4.01439 20.5085 3.88123C18.7103 3.39771 11.5228 3.39771 11.5228 3.39771C11.5228 3.39771 4.33531 3.39771 2.53713 3.88123C2.04866 4.01439 1.60374 4.27352 1.24688 4.63267C0.890023 4.99182 0.633755 5.43839 0.503721 5.92771C0.0228119 7.73373 0.0228119 11.5 0.0228119 11.5C0.0228119 11.5 0.0228119 15.2662 0.503721 17.0723C0.633755 17.5616 0.890023 18.0081 1.24688 18.3673C1.60374 18.7264 2.04866 18.9856 2.53713 19.1187C4.33531 19.6023 11.5228 19.6023 11.5228 19.6023C11.5228 19.6023 18.7103 19.6023 20.5085 19.1187C20.997 18.9856 21.4419 18.7264 21.7987 18.3673C22.1556 18.0081 22.4119 17.5616 22.5419 17.0723C23.0228 15.2662 23.0228 11.5 23.0228 11.5C23.0228 11.5 23.0228 7.73373 22.5419 5.92771Z" fill="#1A1B1B"/>
<path d="M9.17056 14.92V8.08008L15.1819 11.5L9.17056 14.92Z" fill="#E9E7E1"/>
</g>
<defs>
<clipPath id="clip0_7_420">
<rect width="23" height="23" fill="white"/>
</clipPath>
</defs>
</svg>
